<svg viewBox="0 0 330 200" xmlns="http://www.w3.org/2000/svg"><g><g><g><g><g><line x1="41.171875" y1="177" x2="36.171875" y2="177" style="visibility: inherit;" fill="rgb(0, 0, 0)" stroke="rgb(204, 204, 204)" stroke-width="1px"></line><line x1="41.171875" y1="151.71428571428572" x2="36.171875" y2="151.71428571428572" style="visibility: inherit;" fill="rgb(0, 0, 0)" stroke="rgb(204, 204, 204)" stroke-width="1px"></line><line x1="41.171875" y1="126.42857142857143" x2="36.171875" y2="126.42857142857143" style="visibility: inherit;" fill="rgb(0, 0, 0)" stroke="rgb(204, 204, 204)" stroke-width="1px"></line><line x1="41.171875" y1="101.14285714285714" x2="36.171875" y2="101.14285714285714" style="visibility: inherit;" fill="rgb(0, 0, 0)" stroke="rgb(204, 204, 204)" stroke-width="1px"></line><line x1="41.171875" y1="75.85714285714286" x2="36.171875" y2="75.85714285714286" style="visibility: inherit;" fill="rgb(0, 0, 0)" stroke="rgb(204, 204, 204)" stroke-width="1px"></line><line x1="41.171875" y1="50.57142857142857" x2="36.171875" y2="50.57142857142857" style="visibility: inherit;" fill="rgb(0, 0, 0)" stroke="rgb(204, 204, 204)" stroke-width="1px"></line><line x1="41.171875" y1="25.285714285714295" x2="36.171875" y2="25.285714285714295" style="visibility: inherit;" fill="rgb(0, 0, 0)" stroke="rgb(204, 204, 204)" stroke-width="1px"></line><line x1="41.171875" y1="0" x2="36.171875" y2="0" style="visibility: inherit;" fill="rgb(0, 0, 0)" stroke="rgb(204, 204, 204)" stroke-width="1px"></line></g><g transform="translate(31.171875, 0)"><text x="0" y="177" dx="0em" dy="0.3em" style="text-anchor: end; visibility: hidden; font-family: Roboto, sans-serif; font-size: 12px; font-weight: 200;" fill="rgb(33, 33, 33)" stroke="none" stroke-width="1px">2</text><text x="0" y="151.71428571428572" dx="0em" dy="0.3em" style="text-anchor: end; visibility: inherit; font-family: Roboto, sans-serif; font-size: 12px; font-weight: 200;" fill="rgb(33, 33, 33)" stroke="none" stroke-width="1px">2.5</text><text x="0" y="126.42857142857143" dx="0em" dy="0.3em" style="text-anchor: end; visibility: inherit; font-family: Roboto, sans-serif; font-size: 12px; font-weight: 200;" fill="rgb(33, 33, 33)" stroke="none" stroke-width="1px">3</text><text x="0" y="101.14285714285714" dx="0em" dy="0.3em" style="text-anchor: end; visibility: inherit; font-family: Roboto, sans-serif; font-size: 12px; font-weight: 200;" fill="rgb(33, 33, 33)" stroke="none" stroke-width="1px">3.5</text><text x="0" y="75.85714285714286" dx="0em" dy="0.3em" style="text-anchor: end; visibility: inherit; font-family: Roboto, sans-serif; font-size: 12px; font-weight: 200;" fill="rgb(33, 33, 33)" stroke="none" stroke-width="1px">4</text><text x="0" y="50.57142857142857" dx="0em" dy="0.3em" style="text-anchor: end; visibility: inherit; font-family: Roboto, sans-serif; font-size: 12px; font-weight: 200;" fill="rgb(33, 33, 33)" stroke="none" stroke-width="1px">4.5</text><text x="0" y="25.285714285714295" dx="0em" dy="0.3em" style="text-anchor: end; visibility: inherit; font-family: Roboto, sans-serif; font-size: 12px; font-weight: 200;" fill="rgb(33, 33, 33)" stroke="none" stroke-width="1px">5</text><text x="0" y="0" dx="0em" dy="0.3em" style="text-anchor: end; visibility: hidden; font-family: Roboto, sans-serif; font-size: 12px; font-weight: 200;" fill="rgb(33, 33, 33)" stroke="none" stroke-width="1px">5.5</text></g><line x1="41.171875" y1="0" x2="41.171875" y2="177" fill="rgb(0, 0, 0)" stroke="rgb(204, 204, 204)" stroke-width="1px"></line></g></g><g transform="translate(41, 0)" clip-path="url(#clip_0)"><clipPath id="clip_0"><rect width="288" height="177"></rect></clipPath><g><g><g><line x1="0" y1="0" x2="0" y2="177" fill="rgb(0, 0, 0)" stroke="rgb(66, 66, 66)" stroke-width="1px" opacity="0.25"></line><line x1="32.092013888888886" y1="0" x2="32.092013888888886" y2="177" fill="rgb(0, 0, 0)" stroke="rgb(66, 66, 66)" stroke-width="1px" opacity="0.25"></line><line x1="64.18402777777777" y1="0" x2="64.18402777777777" y2="177" fill="rgb(0, 0, 0)" stroke="rgb(66, 66, 66)" stroke-width="1px" opacity="0.25"></line><line x1="96.27604166666666" y1="0" x2="96.27604166666666" y2="177" fill="rgb(0, 0, 0)" stroke="rgb(66, 66, 66)" stroke-width="1px" opacity="0.25"></line><line x1="128.36805555555554" y1="0" x2="128.36805555555554" y2="177" fill="rgb(0, 0, 0)" stroke="rgb(66, 66, 66)" stroke-width="1px" opacity="0.25"></line><line x1="160.46006944444446" y1="0" x2="160.46006944444446" y2="177" fill="rgb(0, 0, 0)" stroke="rgb(66, 66, 66)" stroke-width="1px" opacity="0.25"></line><line x1="192.55208333333331" y1="0" x2="192.55208333333331" y2="177" fill="rgb(0, 0, 0)" stroke="rgb(66, 66, 66)" stroke-width="1px" opacity="0.25"></line><line x1="224.64409722222223" y1="0" x2="224.64409722222223" y2="177" fill="rgb(0, 0, 0)" stroke="rgb(66, 66, 66)" stroke-width="1px" opacity="0.25"></line><line x1="256.7361111111111" y1="0" x2="256.7361111111111" y2="177" fill="rgb(0, 0, 0)" stroke="rgb(66, 66, 66)" stroke-width="1px" opacity="0.25"></line><line x1="288.828125" y1="0" x2="288.828125" y2="177" fill="rgb(0, 0, 0)" stroke="rgb(66, 66, 66)" stroke-width="1px" opacity="0.25"></line></g><g><line x1="0" y1="177" x2="288.828125" y2="177" fill="rgb(0, 0, 0)" stroke="rgb(66, 66, 66)" stroke-width="1px" opacity="0.25"></line><line x1="0" y1="151.71428571428572" x2="288.828125" y2="151.71428571428572" fill="rgb(0, 0, 0)" stroke="rgb(66, 66, 66)" stroke-width="1px" opacity="0.25"></line><line x1="0" y1="126.42857142857143" x2="288.828125" y2="126.42857142857143" fill="rgb(0, 0, 0)" stroke="rgb(66, 66, 66)" stroke-width="1px" opacity="0.25"></line><line x1="0" y1="101.14285714285714" x2="288.828125" y2="101.14285714285714" fill="rgb(0, 0, 0)" stroke="rgb(66, 66, 66)" stroke-width="1px" opacity="0.25"></line><line x1="0" y1="75.85714285714286" x2="288.828125" y2="75.85714285714286" fill="rgb(0, 0, 0)" stroke="rgb(66, 66, 66)" stroke-width="1px" opacity="0.25"></line><line x1="0" y1="50.57142857142857" x2="288.828125" y2="50.57142857142857" fill="rgb(0, 0, 0)" stroke="rgb(66, 66, 66)" stroke-width="1px" opacity="0.25"></line><line x1="0" y1="25.285714285714295" x2="288.828125" y2="25.285714285714295" fill="rgb(0, 0, 0)" stroke="rgb(66, 66, 66)" stroke-width="1px" opacity="0.25"></line><line x1="0" y1="0" x2="288.828125" y2="0" fill="rgb(0, 0, 0)" stroke="rgb(66, 66, 66)" stroke-width="1px" opacity="0.25"></line></g></g></g><g><g><line x1="0" y1="278.1428571428571" x2="288.828125" y2="278.1428571428571" fill="rgb(0, 0, 0)" stroke="rgb(153, 153, 153)" stroke-width="1.5px"></line></g></g><g><g><line x1="32.092013888888886" y1="0" x2="32.092013888888886" y2="177" fill="rgb(0, 0, 0)" stroke="rgb(153, 153, 153)" stroke-width="1.5px"></line></g></g><g><g><g><g><g><path stroke="rgb(0, 119, 187)" stroke-width="2px" d="M32.39688802083333,46.0075010572161L32.7819921875,62.70308589935303L32.83013020833333,65.20480360303607L33.00663628472223,62.60255323137555L33.24732638888889,77.45177568708148L33.29546440972222,33.406626973833355L33.61638454861111,74.29880210331508L34.59519097222222,66.13019125802177L34.643328993055555,62.458735329764224L34.78774305555556,31.32223197392055L35.78259548611111,68.88096182686942L35.86282552083333,70.10551193782261L36.19979166666666,55.93684428078788L36.28002170138889,65.85485376630511L36.39234375,75.6761165346418L36.488619791666665,32.7999826158796L37.05023003472222,15.078598022460938L37.08232204861111,59.91312953404018L37.210690104166666,60.77777317592076L37.67602430555556,52.41386032104492L37.996944444444445,20.88079670497349L38.86342881944445,46.57618944985526L38.879474826388886,38.775129318237305L39.20039496527777,49.78168405805316L39.489223090277775,56.73068823133197L39.7138671875,54.13695022038051L40.70871961805556,67.58763762882778L41.14196180555556,53.91620758601597L41.39869791666667,89.77814422334944L41.511019965277775,34.732891355242046L41.527065972222225,36.32658372606549L42.05658420138889,62.06272969927106L42.28122829861111,68.08485112871442L42.409596354166666,92.77395262037004L42.489826388888886,48.217097691127236L42.52191840277778,79.27659191404071L42.714470486111104,59.896225384303506L42.87493055555555,22.2915094920567L43.56490885416667,55.597844941275454L43.69327690972222,54.85396589551654L43.82164496527778,33.06514385768345L44.238841145833334,40.52199595315116L44.38325520833334,82.51474939073834L44.44743923611111,74.9638031550816L44.47953125,66.52829483577183L44.70417534722222,78.11745194026402L44.73626736111111,56.517710413251606L44.848589409722216,69.84343733106341L44.97695746527778,53.42825399126325L45.07323350694445,38.597696031842915L45.52252170138889,61.87463787623814L46.69388020833333,50.88139425005231L47.2233984375,67.96343544551304L47.27153645833333,54.535897799900596L47.544318576388896,60.87666606903076L47.68873263888889,46.80611964634487L47.70477864583333,58.59397888183594L47.8010546875,61.44002519335065L47.81710069444445,58.61081068856376L47.89733072916667,42.78334195273263L48.18615885416666,57.41722338540214L48.234296875000005,58.730176653180806L48.3787109375,46.703054973057334L49.164965277777775,60.71845190865653L49.21310329861111,42.91015924726214L49.30937934027778,38.706138202122276L49.40565538194444,57.89396381378174L49.48588541666667,69.81302915300641L49.646345486111116,54.93036011287144L49.74262152777778,47.27794075012207L49.8228515625,56.26202610560826L50.65724392361111,65.53873893192836L50.73747395833333,87.07718181610107L50.753519965277775,53.60600076402936L51.04234809027778,61.86916392190116L51.25094618055555,41.78069196428571L51.459544270833334,63.98973042624337L52.06929253472222,72.10755647931781L52.34207465277778,82.83990710122245L52.66299479166666,89.06536061423165L52.871592881944444,71.94439888000488L53.224605034722224,80.15581267220634L53.27274305555555,56.43499823978969L53.49738715277778,35.30664375850132L53.56157118055555,44.9341960634504L54.33177951388889,70.53402369362968L54.4441015625,55.48684665134975L54.797113715277774,69.56781046731132L54.98966579861111,85.13342162540981L55.150125868055554,53.959179333278115L55.631506076388895,80.07085786546979L55.80801215277778,68.56364127567836L55.93638020833333,76.09190797805786L56.03265625,40.78211729867118L56.54612847222222,66.7918645313808L56.6103125,60.668245860508506L57.01146267361111,90.59982817513603L57.26819878472222,54.49046639033726L57.284244791666666,73.33777345929828L57.52493489583333,74.5557644707816L57.58911892361111,55.87771592821393L57.86190104166667,85.24674694878715L58.423511284722224,27.796089036124084L58.55187934027778,81.3965676171439L58.872799479166666,72.5570959363665L59.09744357638889,74.03303800310407L59.24185763888889,49.01043524060931L59.33813368055556,70.81321947915214L59.41836371527778,46.47505392347064L59.53068576388889,77.13894040243966L59.67509982638889,91.0898676599775L59.89974392361111,74.08669240134103L59.9318359375,60.041007859366275L59.97997395833333,69.92651121956962L60.12438802083334,58.41447176252093L60.68599826388889,55.06573799678257L61.071102430555555,67.08106776646206L61.40806857638889,73.28896604265485L61.69689670138889,67.49395343235561L61.84131076388889,91.95629576274327L62.04990885416666,53.33666774204799L62.098046875,36.27418327331543L62.226414930555556,71.19642039707729L62.86825520833334,72.10548264639718L63.14103732638889,76.70747464043754L63.30149739583334,61.69057314736503L63.349635416666665,71.38060569763184L63.67055555555555,55.96730068751744L63.92729166666666,42.21711322239467L64.21611979166667,45.482990128653384L64.408671875,26.929588590349468L64.68145399305556,65.21611322675433L64.77773003472223,66.82490117209298L65.16283420138889,42.45721966879708L65.37143229166666,58.88650989532471L65.4195703125,51.07773317609515L65.43561631944445,67.49426691872733L65.563984375,87.55072709492275L65.62816840277777,64.05112552642822L65.74049045138888,72.832336970738L66.52674479166667,50.924583026341026L66.59092881944444,20.921139989580425L66.70325086805556,56.00858443123954L66.84766493055555,54.38371222359794L67.20067708333333,51.264908654349185L67.26486111111112,42.59361035483224L67.39322916666667,70.52179772513253L67.52159722222223,76.77774381637573L67.58578125000001,66.02348531995501L67.90670138888889,47.28879220145089L67.98693142361111,61.537615912301206L68.00297743055556,59.379262242998394L68.08320746527778,57.990614073617124L68.27575954861112,56.96886553083148L68.32389756944444,81.64255796160016L68.40412760416667,58.43253340039935L68.70900173611112,49.16734722682408L68.96573784722223,51.17546858106341L69.12619791666667,75.32267270769391L69.31875,84.9740138053894L69.73594618055556,71.28783784593854L69.88036024305555,76.41897072110858L70.4419704861111,72.99004473005023L70.45801649305555,51.54656410217285L70.49010850694444,83.04046603611538L71.1961328125,38.34044429234096L71.32450086805555,41.005729539053775L71.46891493055556,57.14593710218158L71.50100694444444,83.88486569268363L71.58123697916666,71.95787879398891L71.98238715277778,89.2966412135533L71.99843315972223,71.78172356741769L72.15889322916667,65.71921062469482L72.19098524305555,76.1139725957598L72.27121527777778,64.22253022875104L72.495859375,88.851767880576L72.59213541666668,80.12613998140607L72.73654947916667,63.18231010437012L72.97723958333333,71.51226997375488L73.073515625,66.94016769954136L73.82767795138889,96.35623373304094L73.92395399305555,93.70724977765764L74.19673611111111,33.18701771327427L74.29301215277778,96.95290681294033L75.07926649305556,88.37495510918754L75.19158854166668,59.03775501251221L75.2718185763889,60.364549909319194L75.48041666666666,81.31606190545219L76.07411892361111,57.64105265481132L76.29876302083333,64.69789613996234L76.86037326388889,47.11191354479108L78.19219184027777,93.71365213394165L78.33660590277778,68.18417807987758L78.48101996527777,93.55500391551426L78.57729600694444,76.09670673097882L78.96240017361112,127.09527254104614L79.71656250000001,46.386240822928286L79.84493055555555,51.106887408665244L80.42258680555555,74.82167325701032L80.67932291666666,74.39815316881452L80.72746093750001,39.85033934456962L80.85582899305555,55.207771437508725L80.90396701388889,68.45064149584088L81.28907118055555,74.03687218257359L81.35325520833334,75.5080154963902L81.83463541666667,48.93900857652936L82.44438368055556,72.57597746167865L82.73321180555556,69.75640869140625L82.82948784722223,79.88809531075614L83.08622395833333,61.813122204371865L83.37505208333334,50.64960724966866L83.39109809027778,85.63087626865932L83.93666232638888,64.72613402775356L84.09712239583334,57.487661361694336L84.14526041666667,57.795432635716026L84.16130642361111,35.89324910300118L84.1933984375,75.0576320375715L84.20944444444444,79.9588588305882L84.61059461805556,84.51804787772042L85.14011284722223,107.32257781709944L85.781953125,79.74823216029576L86.27937934027777,67.81662736620221L86.71262152777778,61.060682569231304L86.79285156249999,66.24174417768207L87.14586371527778,74.93833841596332L87.45073784722221,87.83340740203857L87.69142795138889,63.556878089904785L87.9481640625,49.55778244563511L88.41349826388888,70.24117919376918L88.46163628472222,71.24209295000348L88.86278645833333,87.0072020121983L89.2799826388889,28.575199127197266L89.55276475694444,94.2573460170201L89.87368489583332,82.24173893247333L90.16251302083333,69.08407688140869L90.19460503472222,36.29330594199044L90.22669704861111,61.65334061213902L90.32297309027778,74.33502183641706L90.77226128472222,110.66577734266008L90.99690538194444,77.57210622514997L91.89548177083333,71.8844747543335L91.95966579861111,70.97003500802177L92.136171875,73.18279061998639L92.63359809027779,87.22165080479213L92.76196614583333,78.22509833744594L92.97056423611112,76.7448639188494L93.05079427083334,98.72803544998169L93.30753038194445,64.28874819619315L93.38776041666667,27.462394850594666L93.41985243055555,103.89028787612915L93.5803125,88.64222635541643L93.64449652777779,78.61541298457554L94.10983072916666,93.29424354008266L94.3023828125,61.224081311907085L95.13677517361111,51.001146044049946L95.31328125,83.72907502310616L95.58606336805555,89.10353360857283L96.03535156250001,77.0751941544669L96.45254774305555,96.96109363010952L96.6450998263889,61.660647256033755L96.82160590277778,69.64246845245361L96.86974392361111,63.34739685058594L97.78436631944444,63.079751832144595L97.86459635416666,99.49652317592076L97.88064236111111,95.94267286573137L98.04110243055555,47.184473582676475L99.21246093750001,96.42239141464233L99.38896701388889,99.38926260811942L99.40501302083334,99.16273253304618L99.43710503472222,47.52014514378139L99.51733506944444,84.77878413881574L99.53338107638888,76.89321531568255L99.93453124999999,103.62782743998936L100.01476128472223,56.56461279732841L100.06289930555556,59.886410849434995L100.19126736111112,48.48457390921456L100.5121875,54.62856919424874L100.56032552083333,66.83235250200543L100.57637152777778,72.53729806627545L100.81706163194444,75.887985093253L101.17007378472223,84.05031415394375L101.378671875,58.12189252035958L101.41076388888888,54.90913949693952L101.61936197916667,71.35012517656598L102.21306423611111,55.735055514744346L102.59816840277777,80.63803911209106L102.71049045138889,128.5004631451198L102.80676649305556,91.95902068274361L103.19187065972223,97.04742295401437L103.24000868055556,74.14570018223354L104.18672309027778,86.60926723480225L104.45950520833334,71.31151812417167L104.47555121527778,78.7043707711356L104.79647135416667,81.6549768447876L104.84460937499999,76.18262611116681L104.9890234375,93.0082836832319L105.5666796875,85.70450939450946L105.61481770833332,91.64414773668562L105.87155381944446,87.02234581538609L106.36898003472221,45.707060541425435L106.81826822916668,56.29747417994908L106.94663628472222,76.43846716199603L107.0108203125,74.09455367497036L107.13918836805556,60.16032559531075L107.31569444444443,91.36367389133999L107.732890625,83.81198011125836L107.81312065972222,94.83282259532383L108.06985677083333,92.07585464205061L108.32659288194444,88.9134041241237L108.4549609375,53.903113501412534L108.599375,75.10318401881626L108.7437890625,75.27917044503349L108.92029513888889,86.33225379671369L108.93634114583332,65.74776199885777L109.12889322916668,76.70080702645438L109.16098524305556,78.99740818568638L109.77073350694444,116.02913127626692L109.96328559027778,102.43644659859794L110.26815972222222,70.81242370605469L110.63721788194444,84.27802583149501L110.95813802083333,61.59862518310547L111.72834635416666,33.57282297951835L111.87276041666667,65.1599509375436L111.9208984375,98.62242671421596L111.9529904513889,88.1490399496896L112.77133680555555,87.6682483128139L112.8194748263889,49.97635909489223L113.14039496527779,73.9845199584961L113.17248697916666,88.87263883863176L113.18853298611111,84.14405863625663L113.30085503472222,99.13904019764492L113.58968315972223,59.47731113433838L114.03897135416666,72.19041333879743L114.35989149305556,81.69875642231533L114.48825954861111,92.61442422866821L114.9856857638889,114.61081041608537L115.25846788194444,106.64904029028756L115.54729600694445,87.41936424800328L115.6756640625,101.07097230638777L116.17309027777777,51.16953645433698L116.60633246527777,87.62096009935651L116.975390625,103.15170192718506L117.44072482638889,91.31842333929879L117.61723090277778,87.76479005813599L117.87396701388889,50.648160389491494L118.09861111111111,139.2266525541033L118.43557725694444,70.18487221854073L119.07741753472223,80.264869758061L119.4304296875,76.14790146691459L119.51065972222223,77.6622576713562L120.10436197916667,94.68360308238438L120.28086805555556,93.53014203480312L120.37714409722223,85.487649168287L120.60178819444445,77.08843292508807L120.63388020833334,33.726696559361045L121.14735243055556,81.21743427004132L121.53245659722221,60.83051122937884L121.72500868055556,120.81858812059676L121.75710069444445,96.00807094573975L121.8533767361111,93.8720953805106L122.04592881944446,70.50525529044015L122.44707899305556,114.17006063461304L122.89636718749999,121.28813041959489L122.92845920138889,75.60558210100446L122.99264322916667,56.475100381033755L123.23333333333333,94.42685774394444L123.89121961805556,78.60854039873395L123.9393576388889,67.9188962663923L124.78979600694446,102.18450001307896L124.83793402777778,83.55607877458844L124.99839409722222,64.0594208581107L125.28722222222221,80.77416454042707L125.30326822916668,78.0622421673366L125.57605034722222,93.95015348706926L125.62418836805556,78.08547633034843L126.16975260416667,48.57801696232387L126.20184461805556,94.0281754221235L126.31416666666667,97.96668556758335L126.74740885416668,66.23082038334438L126.89182291666667,81.20610053198678L127.2287890625,70.31446266174316L127.61389322916668,89.66456569944108L127.6941232638889,69.38849626268659L127.79039930555555,91.89452689034599L128.22364149305554,100.51530565534318L128.54456163194445,63.41426590510777L128.62479166666668,77.70096118109566L128.86548177083333,90.48299421582902L128.94571180555556,50.588694436209536L129.63569010416666,124.04544803074428L129.69987413194443,87.52615458624703L130.0368402777778,81.83101149967739L130.06893229166667,85.34301137924194L130.32566840277778,92.63009854725429L130.35776041666665,89.80925171715873L130.45403645833332,112.38340534482683L130.48612847222222,91.35111032213484L130.77495659722223,80.2624100957598L131.14401475694444,107.2292673928397L131.28842881944445,75.8401904787336L131.5933029513889,88.23321104049683L131.76980902777777,47.85263361249652L131.80190104166667,69.07816886901855L131.89817708333334,119.56309931618827L132.1067751736111,60.21407645089286L132.39560329861112,65.48202201298305L133.02139756944445,88.833573613848L133.39045572916666,91.32976913452148L133.45463975694443,123.81807395390102L133.4706857638889,96.48320777075631L133.5830078125,83.53555747440883L133.85578993055555,107.73314850670951L134.03229600694445,88.24630512510028L134.20880208333332,81.51023054122925L134.32112413194446,74.62482792990548L134.41740017361113,79.7474605015346L134.80250434027778,95.7798649242946L135.74921874999998,94.88081012453353L136.326875,59.3550273350307L136.34292100694444,62.645018577575684L136.40710503472224,94.44073554447719L136.72802517361112,90.78851079940796L136.74407118055555,100.28961958203996L136.7601171875,115.07144246782576L136.88848524305556,59.36158643450055L137.59450954861111,121.25440652029855L137.70683159722222,88.66489383152553L137.75496961805555,96.08632196698869L138.05984375,73.67768914358956L138.926328125,113.73670189721244L139.0707421875,89.98818009240287L139.10283420138887,83.70597348894391L139.16701822916667,80.47564111437116L139.26329427083334,86.91744845254081L139.31143229166668,79.89944110597882L139.42375434027778,131.31513670512606L139.55212239583335,81.35026809147426L139.60026041666666,75.91436617715019L139.7928125,76.95414018630981L140.2260546875,113.97878571919033L140.29023871527778,98.67202990395683L140.46674479166666,132.26198611940657L140.64325086805556,78.63375193732125L141.73437934027777,79.94570446014404L141.9590234375,101.67802660805839L142.08739149305555,76.85381249019078L142.3120355902778,109.02151720864433L142.32808159722222,71.40308025905064L142.74527777777777,102.513359274183L142.969921875,93.73750121252877L143.3710720486111,94.65442473547799L143.83640625,98.17421354566301L143.88454427083332,85.1300938470023L144.3017404513889,83.41883202961513L144.5905685763889,104.68428856985909L144.65475260416667,84.32850919451032L145.0559027777778,91.88110726220268L145.47309895833334,62.6001900264195L145.8902951388889,105.64700521741594L146.13098524305556,109.74884176254272L146.2593532986111,98.70049687794277L146.27539930555557,94.57517296927315L146.62841145833335,108.18757111685616L146.6925954861111,84.0380881854466L146.91723958333336,102.11306129183089L147.5590798611111,103.72440535681588L147.70349392361112,107.32635171072823L147.89604600694446,99.53697497504098L148.20092013888888,100.76564863749913L148.24905815972224,68.95347363608224L148.39347222222221,108.96908058438981L149.24391059027778,75.09194673810687L149.42041666666665,148.22799171720231L149.70924479166666,127.06216355732509L149.8697048611111,106.30057607378279L149.88575086805554,60.52237824031285L150.17457899305555,75.4087608882359L150.190625,86.98504093715123L150.5596831597222,84.46386296408517L150.6238671875,97.73639365604946L150.86455729166667,93.33188601902553L151.34593750000002,100.15694250379289L151.4903515625,71.9299543925694L151.53848958333333,56.88243974958148L151.65081163194446,76.05061217716762L151.8112717013889,93.94000135149275L151.85940972222224,76.38874340057373L151.93963975694447,76.67438977105277L152.10009982638888,75.45016520363944L152.48520399305556,108.80784007481166L152.62961805555557,58.28413377489362L152.93449218749998,85.71651833398002L153.20727430555556,118.23160212380546L154.2021267361111,115.90817376545498L154.76373697916668,119.01610176903861L155.03651909722223,99.70414761134556L155.19697916666667,117.62399319240025L155.2772092013889,77.63234383719308L155.4537152777778,69.40612384251186L155.54999131944444,68.91356440952846L155.66231336805555,63.24324703216553L155.95114149305556,98.03731645856584L156.0313715277778,102.84687260219029L156.1116015625,102.99593537194389L156.4004296875,98.37108298710415L156.57693576388888,71.69505664280483L156.62507378472222,97.08219582693917L156.94599392361113,90.50557729176113L157.07436197916664,101.70967667443412L157.2348220486111,77.36057526724679L157.42737413194445,78.36077765056065L157.79643229166666,105.74494559424264L157.8766623263889,98.2974739755903L158.85546875,100.31539780752999L158.87151475694444,68.19970771244594L159.38498697916665,103.76888425009591L160.07496527777775,105.7733040537153L160.20333333333332,44.190871647426064L160.3317013888889,60.40086609976632L160.34774739583335,78.90280764443534L160.89331163194444,106.8475615637643L161.06981770833332,81.1557377406529L161.26236979166666,123.61217369352067L161.53515190972223,88.82321650641305L162.49791232638887,85.88953869683402L162.88301649305555,127.0538079398019L163.36439670138887,75.16383157457624L163.42858072916667,89.71268585750035L163.65322482638888,84.35004329681396L163.92600694444445,96.3383891241891L164.02228298611112,66.95871162414551L164.69621527777775,100.56704296384538L164.9529513888889,80.8799661908831L165.1294574652778,110.68344109398979L165.27387152777777,93.18707942962646L165.40223958333334,83.29882703508649L165.72315972222225,121.82703760692051L165.75525173611112,99.15841606685093L165.80338975694443,106.76478910446167L165.83548177083335,100.82544013432094L165.9317578125,41.94980580466134L166.25267795138888,77.71779298782349L166.30081597222224,82.5017638206482L166.38104600694444,59.143882206508096L166.52546006944445,124.30441188812256L167.64868055555556,93.02401828765869L167.96960069444447,125.78181287220546L167.98564670138887,117.8100835255214L168.01773871527777,61.36688641139439L168.2423828125,118.04551179068429L168.30656684027778,89.98356219700405L168.45098090277776,91.84265695299422L168.46702690972222,110.07374627249581L168.54725694444446,116.03147036688668L168.62748697916666,106.10664858136857L168.86817708333334,80.76761749812535L169.3656032986111,104.13317952837264L169.55815538194443,104.98411417007446L169.67047743055556,97.46595137459892L169.7507074652778,111.28567252840315L169.9753515625,118.64515093394688L170.11976562499999,57.14176532200405L170.53696180555556,124.19316039766585L170.64928385416667,99.13075692313058L170.6653298611111,84.73266547066825L170.8097439236111,106.75077867507935L171.4194921875,94.79243108204433L171.54786024305557,91.16353695733207L171.56390625,76.47782175881522L171.62809027777777,121.7746250970023L172.1415625,136.91196564265658L172.89572482638889,87.14766802106585L172.95990885416666,93.8385523387364L173.24873697916667,100.7015768459865L173.3289670138889,103.67084741592407L173.6177951388889,116.46772282464164L173.66593315972221,97.62253781727382L174.00289930555556,104.550598689488L174.17940538194443,102.22913564954484L174.5645095486111,117.66666351045882L174.67683159722222,83.19759505135673L174.9496137152778,95.38958644866943L174.98170572916666,116.1792550768171L175.02984375,98.26975454602922L175.3668098958333,78.88258777345929L175.39890190972224,91.62838901792253L175.47913194444445,97.84484788349697L175.65563802083332,97.44989122663225L175.84819010416666,95.34522812707084L176.1209722222222,98.27977405275618L176.40980034722222,105.80174691336495L176.5060763888889,106.19448505129134L176.66653645833335,90.62589577266148L176.95536458333333,99.14206654684884L176.97141059027777,89.22754158292497L177.40465277777778,104.22328274590629L177.53302083333335,97.73065444401333L177.69348090277776,104.26248059953963L177.86998697916667,103.5590774672372L178.20695312499998,67.87356131417411L178.49578125,101.87106187002999L179.0092534722222,104.80875471660069L179.12157552083332,101.73391158240182L179.95596788194445,77.10208163942609L179.98805989583332,115.78220047269548L180.14851996527776,88.16300215039935L180.26084201388886,76.94360222135272L180.6940842013889,98.87742376327515L181.03105034722222,91.82506554467338L181.19151041666666,117.98175348554338L181.44824652777777,108.9034172466823L181.48033854166667,75.28601891653878L181.59266059027777,75.66671194349017L182.1061328125,100.59963348933628L182.18636284722223,122.18528018678938L182.3628689236111,96.42452553340367L182.44309895833334,98.59306750978743L183.13307725694446,91.78326334272111L183.1812152777778,107.45601449693953L183.50213541666665,85.76027379717145L183.59841145833335,132.2988087109157L183.61445746527778,112.49231774466378L184.03165364583333,75.96307713644845L184.14397569444444,89.98986809594291L185.15487413194447,108.62682580947876L185.29928819444444,120.68439183916365L185.41161024305555,67.60591629573277L185.45974826388888,104.39190224238804L185.5720703125,109.35245030266898L185.62020833333335,102.19287974493844L185.9732204861111,77.21355015890938L186.14972656249998,110.41232361112321L186.32623263888888,112.49850307192122L186.51878472222222,100.76696286882674L186.53483072916669,110.4475908279419L186.58296875,115.87211077553886L186.96807291666667,101.7577486038208L187.0643489583333,85.24378088542393L187.43340711805556,91.03099250793457L187.5938671875,115.5626153264727L187.72223524305556,106.35851076671055L188.70104166666667,110.94324895313808L188.84545572916667,119.53610331671578L188.98986979166668,77.18284055164882L189.5514800347222,110.85424293790544L190.00076822916668,111.05997439793178L190.04890625000002,113.28162819998605L190.6907465277778,110.78117649895805L191.07585069444445,78.63947909218925L191.2363107638889,86.93179648263114L192.11884114583333,108.60067381177629L192.3274392361111,82.92955214636666L192.7927734375,97.06777545383999L193.3704296875,108.43354940414429L193.45065972222224,93.28946890149797L193.46670572916665,96.63879346847534L193.49879774305555,83.82056481497628L193.7234418402778,103.41741779872349L193.91599392361113,104.18334940501622L194.2850520833333,82.63069111960274L194.381328125,86.20271158218384L194.62201822916666,119.28088923863002L194.71829427083335,93.67081301552909L194.87875434027777,117.61159842354911L195.26385850694444,93.88195814405168L195.53664062500002,132.36005912508284L195.88965277777777,104.72480065482003L196.38707899305555,67.8660135269165L196.49940104166666,95.98806810379028L196.67590711805556,110.587683064597L196.93264322916664,90.7131655556815L196.99682725694444,114.39310618809291L197.10914930555555,91.91525316238403L197.18937934027778,87.50218493597848L197.86331163194444,100.2620689528329L198.44096788194443,112.45307166235787L198.89025607638888,98.90054941177368L198.92234809027778,133.4272029059274L198.93839409722224,93.98217732565743L198.97048611111111,95.02395282472884L199.06676215277776,126.90490191323417L199.2111762152778,118.6236047744751L199.30745225694443,96.65645721980503L199.38768229166666,71.88006183079311L199.85301649305558,141.92452832630704L200.0776605902778,104.06341675349644L200.25416666666666,80.22669676371983L200.4146267361111,158.99163069043843L200.4788107638889,119.47545576095581L200.49485677083334,89.86623389380318L200.9441449652778,112.84690700258528L201.08855902777776,92.12833949497768L201.21692708333333,116.27828059877669L201.4576171875,71.78825855255127L201.47366319444447,84.246520451137L201.66621527777778,106.7704439163208L202.16364149305556,100.57702629906791L202.30805555555554,57.12893649509975L202.51665364583334,92.18434504100254L202.5808376736111,112.19252831595284L202.66106770833332,98.14700051716396L202.80548177083335,114.89116368974959L202.93384982638887,125.2672370501927L203.046171875,95.58783040727889L203.06221788194443,106.38582025255477L203.33499999999998,111.73586307253157L203.81638020833333,93.9159231867109L203.97684027777777,99.85321038109916L204.57054253472222,114.85401555470058L204.7149565972222,88.49934891292027L204.73100260416666,129.27923563548495L204.82727864583333,125.95222888674056L205.08401475694444,95.53960173470634L205.19633680555555,117.50353002548218L205.645625,114.29259763445174L205.66167100694443,106.33719369343349L205.80608506944446,126.48880904061454L205.88631510416667,137.8746943473816L206.06282118055555,119.55315215247018L206.20723524305558,89.65012121200562L206.4318793402778,98.90255090168544L206.6083854166667,96.26324885232108L207.04162760416668,72.42924172537667L207.08976562499998,100.67118072509766L207.23417968750002,82.92980534689767L207.63532986111113,146.9132298742022L207.6995138888889,76.79106698717389L207.84392795138888,116.76674059459141L208.0685720486111,102.54336956569126L208.1648480902778,115.51871517726353L208.19694010416666,79.42323119299752L208.7425043402778,122.10202544076103L208.83878038194445,127.42633826392037L208.93505642361112,133.5004140308925L208.96714843750001,131.7169418334961L208.98319444444442,113.99749844414848L209.1436545138889,132.30427060808455L209.2238845486111,97.80592734473092L209.44852864583333,120.38068383080619L209.59294270833334,116.97425651550293L209.84967881944442,87.83267191478184L210.25082899305553,108.23496784482683L210.555703125,92.3258238519941L210.7001171875,64.05631010872978L210.98894531250002,82.9980127470834L211.4221875,126.63003465107509L211.79124565972222,110.85227761949812L211.8233376736111,108.52378525052751L211.83938368055556,128.43705449785506L212.65773003472222,99.25943102155412L212.78609809027776,94.85327155249459L212.83423611111112,134.05540548052107L212.9786501736111,127.61927706854684L213.58839843750002,106.74717358180455L214.08582465277777,84.64740923472813L214.40674479166665,120.77500145775932L214.63138888888886,114.22074896948678L214.7116189236111,110.31880821500505L215.20904513888888,90.20012099402291L215.33741319444442,78.67090007237026L215.36950520833335,102.61723177773612L215.91506944444444,102.8972474506923L215.96320746527778,75.10429327828544L216.18785156250001,73.55605643136161L216.23598958333335,103.65583624158586L216.41249565972223,95.0291976928711L216.5087717013889,102.10078709466117L216.95805989583332,72.43035098484584L217.00619791666665,111.6116260119847L217.02224392361111,132.42563806261336L217.11851996527776,93.58712421144759L217.15061197916668,122.063948903765L217.42339409722223,130.28186150959561L217.55176215277777,87.53781386784145L217.69617621527777,129.99012626920427L217.93686631944445,112.25871011189052L218.19360243055556,82.89283806937081L218.81939670138888,112.52447421210152L219.01194878472225,69.72281742095947L219.04404079861112,132.13568728310722L219.20450086805556,96.64529228210449L219.38100694444444,151.6193596294948L219.49332899305554,96.62641075679234L219.60565104166665,132.3623982157026L219.63774305555557,151.5364304270063L219.91052517361112,115.96199696404594L220.21539930555556,137.84300810950143L220.79305555555555,115.36379262379238L220.953515625,100.6038293838501L221.22629774305554,96.8695194380624L221.3225737847222,120.30462721415928L221.4669878472222,89.33013602665493L221.94836805555556,63.9520879473005L222.31742621527778,92.24305139269148L222.3334722222222,97.34128025599888L222.62230034722222,110.63479042053223L223.07158854166667,108.61346646717617L223.1518185763889,104.08921909332275L223.36041666666665,133.8837114061628L223.5850607638889,84.64276722499302L223.71342881944443,150.18009546824862L223.79365885416667,112.30402094977242L223.82575086805556,92.70298412867955L223.841796875,118.02085488183158L224.16271701388888,102.01016541889736L224.24294704861111,82.449942111969L224.46759114583332,87.00323520387921L224.62805121527776,162.89164229801725L224.70828125,128.6125465801784L224.8206032986111,124.27715063095093L225.12547743055558,93.80725193023682L225.3180295138889,107.52869510650635L225.87963975694444,129.27338790893555L226.02405381944445,105.26977259772164L226.7942621527778,103.3669947215489L226.87449218749998,103.53083957944597L227.11518229166666,97.4352297101702L227.29168836805556,51.855155263628276L227.35587239583333,127.24663822991508L227.61260850694444,117.66712168284825L227.82120659722221,84.82392617634365L228.1421267361111,103.06261151177543L228.28654079861113,132.7178797040667L228.41490885416667,110.1462219102042L228.73582899305555,85.02576317105975L228.99256510416666,120.0194149017334L229.31348524305557,128.83032315117973L229.36162326388887,110.7516484941755L229.618359375,111.97209916796004L229.8750954861111,119.76652785709926L230.0516015625,109.96644953319004L231.01436197916667,87.06145926884243L231.15877604166667,140.86137546811784L231.17482204861113,133.7159720829555L231.65620225694443,106.6712737083435L231.9610763888889,130.74436242239815L232.0092144097222,114.79682840619768L232.36222656249998,114.03403166362217L233.06825086805557,66.89500154767718L233.4052170138889,107.99765866143363L233.50149305555556,104.13870171138218L233.53358506944446,121.48923192705428L233.87055121527777,104.27858897617885L234.22356336805555,147.75178180422103L234.68889756944446,98.70417431422642L235.4270138888889,93.01774856022426L235.68374999999997,152.82622187478202L235.87630208333334,107.68141119820731L236.82301649305558,74.3268711907523L237.07975260416666,93.38722842080253L237.57717881944447,146.54522098813737L237.70554687499998,124.22768007005965L238.04251302083335,94.75975615637643L238.44366319444447,109.25036226000105L238.52389322916665,138.43473775046212L238.73249131944445,114.11673177991594L238.94108940972222,55.561094692775185L239.03736545138887,123.31338500976562L239.71129774305555,73.12658010210309L239.72734375,99.37184000015259L239.80757378472222,149.40931688036238L240.0482638888889,89.41929878507341L240.97893229166667,126.92236069270542L241.2517144097222,95.13196093695504L241.6849565972222,130.77381808417184L241.70100260416666,90.52324104309082L241.82937065972223,137.80980266843522L242.02192274305557,118.17879172733852L242.0700607638889,130.44329493386405L242.21447482638888,137.21463673455375L242.45516493055555,85.45335858208793L242.51934895833332,84.27023690087455L242.5514409722222,132.54324368068148L242.79213107638887,113.57626921789986L243.08095920138888,134.3418596812657L243.3697873263889,115.50791195460728L243.61047743055556,87.78045231955392L243.7709375,97.32181998661586L243.8190755208333,136.1119966506958L244.01162760416668,99.79614380427769L244.0276736111111,102.98489100592477L244.0918576388889,74.64194910866874L244.54114583333333,122.64094468525478L244.9583420138889,84.839202608381L245.48786024305554,108.13917364392961L245.7285503472222,127.75641529900687L246.3062065972222,107.68765681130546L246.38643663194443,90.13657971790859L247.1566449652778,140.61749512808663L247.22082899305553,139.92155538286482L247.54174913194444,104.07444906234741L248.3119574652778,92.05432053974697L248.3280034722222,123.46939270836967L248.74519965277779,87.73723942892892L248.79333767361112,126.79378305162703L249.46726996527775,87.89512804576329L249.7240060763889,135.05255740029472L250.28561631944444,109.43009846551078L250.52630642361112,132.04804372787476L250.65467447916666,111.96875933238438L250.73490451388886,152.16523586000716L250.75095052083333,113.41045904159546L251.28046875,105.94300869532994L251.55325086805556,122.193671975817L251.60138888888886,110.35829544067383L251.64952690972223,114.77842916761125L251.858125,92.6561782019479L252.29136718750001,120.42560883930751L252.58019531250002,143.102983883449L252.69251736111113,111.07991695404053L252.80483940972223,109.04955012457711L253.15785156249999,126.04966286250523L253.49481770833336,109.59291846411568L253.7034157986111,136.32376875196184L254.26502604166666,136.17372935158866L254.6340842013889,119.69460684912545L254.6822222222222,126.16385630198887L254.89082031249998,148.09400040762765L254.95500434027775,105.37233086994716L255.05128038194445,121.80802345275879L255.74125868055557,90.99546003341675L255.75730468749998,97.80844729287284L256.06217881944445,120.14138521466936L256.1103168402778,105.71928794043404L256.23868489583333,90.06714248657227L256.2547309027778,133.12291615349906L256.27077690972226,114.08412919725691L256.36705295138887,113.12768227713448L256.68797309027775,126.13540138517106L256.7200651041667,114.7467429297311L257.0088932291667,93.60065235410417L257.8111935763889,120.60938419614519L258.0358376736111,124.67717129843575L258.1321137152778,123.62482166290283L258.6776779513889,118.76716947555542L259.3355642361111,99.89718287331718L259.7848524305556,122.81392887660435L260.21809461805555,116.61942611421858L260.2983246527778,116.8439667565482L260.3946006944444,123.5352851322719L260.7636588541667,130.27181788853238L261.1648090277778,115.50041239602226L261.3573611111111,136.4028276034764L261.3734071180556,160.41863271168302L261.4696831597222,113.87287555422103L261.6140972222222,99.10705253056118L261.8868793402778,156.20794405256L262.07943142361114,132.22636924471175L262.17570746527775,110.84345177241734L262.4966276041667,105.9352559362139L262.56081163194443,132.2157951082502L262.9459157986111,116.1876106943403L262.9780078125,135.23230566297258L263.122421875,115.85303633553642L263.9247222222222,105.27566855294364L264.3098263888889,138.29280076708113L264.32587239583336,74.86261940002441L264.6788845486111,108.50718252999442L265.24049479166666,130.4063276563372L265.2565407986111,105.07324075698853L265.64164496527775,124.72314528056553L265.6737369791667,72.89115183694022L265.6897829861111,99.03159877232143L266.17116319444443,125.07696287972587L266.5723133680556,89.99889891488212L266.6204513888889,137.7830116408212L266.6525434027778,139.11186831338065L266.89323350694445,128.04721008028304L266.9895095486111,102.78657470430647L267.3104296875,115.81885426385062L267.4708897569444,117.98387554713658L267.4869357638889,152.03639296122958L267.6153038194445,60.927716118948794L267.6794878472222,118.78261470794678L267.7757638888889,94.40345478057861L268.0325,119.36350495474679L268.7224782986111,119.41824449811662L268.91503038194446,117.33100400652205L269.09153645833334,141.72222110203336L269.25199652777775,131.707585471017L269.2680425347222,128.41064929962158L269.3322265625,111.08981588908604L269.39641059027775,162.39254787990023L269.46059461805555,165.64358241217477L269.7333767361111,109.98458351407731L269.82965277777777,123.32471874782017L269.89383680555557,132.48131806509835L269.92592881944444,108.0316960471017L270.3270789930556,113.69942113331386L270.631953125,132.6452714375087L270.74427517361113,139.09141935620988L270.76032118055554,113.75133929933821L271.0170572916667,144.02779279436385L271.0651953125,116.8423993246896L271.57866753472223,114.80259173257011L271.5947135416667,133.98434053148543L271.6107595486111,144.3810316494533L271.9958637152778,97.01233659471785L272.2205078125,123.81280497142247L272.78211805555554,127.75589684077671" style="fill: none;" fill="none"></path></g></g></g></g></g></g><g transform="translate(41, 177)" clip-path="url(#clip_1)"><clipPath id="clip_1"><rect width="288" height="23"></rect></clipPath><g><g><line x1="0" y1="0" x2="0" y2="5" style="visibility: inherit;" fill="rgb(0, 0, 0)" stroke="rgb(204, 204, 204)" stroke-width="1px"></line><line x1="32.092013888888886" y1="0" x2="32.092013888888886" y2="5" style="visibility: inherit;" fill="rgb(0, 0, 0)" stroke="rgb(204, 204, 204)" stroke-width="1px"></line><line x1="64.18402777777777" y1="0" x2="64.18402777777777" y2="5" style="visibility: inherit;" fill="rgb(0, 0, 0)" stroke="rgb(204, 204, 204)" stroke-width="1px"></line><line x1="96.27604166666666" y1="0" x2="96.27604166666666" y2="5" style="visibility: inherit;" fill="rgb(0, 0, 0)" stroke="rgb(204, 204, 204)" stroke-width="1px"></line><line x1="128.36805555555554" y1="0" x2="128.36805555555554" y2="5" style="visibility: inherit;" fill="rgb(0, 0, 0)" stroke="rgb(204, 204, 204)" stroke-width="1px"></line><line x1="160.46006944444446" y1="0" x2="160.46006944444446" y2="5" style="visibility: inherit;" fill="rgb(0, 0, 0)" stroke="rgb(204, 204, 204)" stroke-width="1px"></line><line x1="192.55208333333331" y1="0" x2="192.55208333333331" y2="5" style="visibility: inherit;" fill="rgb(0, 0, 0)" stroke="rgb(204, 204, 204)" stroke-width="1px"></line><line x1="224.64409722222223" y1="0" x2="224.64409722222223" y2="5" style="visibility: inherit;" fill="rgb(0, 0, 0)" stroke="rgb(204, 204, 204)" stroke-width="1px"></line><line x1="256.7361111111111" y1="0" x2="256.7361111111111" y2="5" style="visibility: inherit;" fill="rgb(0, 0, 0)" stroke="rgb(204, 204, 204)" stroke-width="1px"></line><line x1="288.828125" y1="0" x2="288.828125" y2="5" style="visibility: inherit;" fill="rgb(0, 0, 0)" stroke="rgb(204, 204, 204)" stroke-width="1px"></line></g><g transform="translate(0, 8)"><text x="0" y="0" dx="0em" dy="0.95em" style="text-anchor: middle; visibility: hidden; font-family: Roboto, sans-serif; font-size: 12px; font-weight: 200;" fill="rgb(33, 33, 33)" stroke="none" stroke-width="1px">-2k</text><text x="32.092013888888886" y="0" dx="0em" dy="0.95em" style="text-anchor: middle; visibility: inherit; font-family: Roboto, sans-serif; font-size: 12px; font-weight: 200;" fill="rgb(33, 33, 33)" stroke="none" stroke-width="1px">0</text><text x="64.18402777777777" y="0" dx="0em" dy="0.95em" style="text-anchor: middle; visibility: inherit; font-family: Roboto, sans-serif; font-size: 12px; font-weight: 200;" fill="rgb(33, 33, 33)" stroke="none" stroke-width="1px">2k</text><text x="96.27604166666666" y="0" dx="0em" dy="0.95em" style="text-anchor: middle; visibility: inherit; font-family: Roboto, sans-serif; font-size: 12px; font-weight: 200;" fill="rgb(33, 33, 33)" stroke="none" stroke-width="1px">4k</text><text x="128.36805555555554" y="0" dx="0em" dy="0.95em" style="text-anchor: middle; visibility: inherit; font-family: Roboto, sans-serif; font-size: 12px; font-weight: 200;" fill="rgb(33, 33, 33)" stroke="none" stroke-width="1px">6k</text><text x="160.46006944444446" y="0" dx="0em" dy="0.95em" style="text-anchor: middle; visibility: inherit; font-family: Roboto, sans-serif; font-size: 12px; font-weight: 200;" fill="rgb(33, 33, 33)" stroke="none" stroke-width="1px">8k</text><text x="192.55208333333331" y="0" dx="0em" dy="0.95em" style="text-anchor: middle; visibility: inherit; font-family: Roboto, sans-serif; font-size: 12px; font-weight: 200;" fill="rgb(33, 33, 33)" stroke="none" stroke-width="1px">10k</text><text x="224.64409722222223" y="0" dx="0em" dy="0.95em" style="text-anchor: middle; visibility: inherit; font-family: Roboto, sans-serif; font-size: 12px; font-weight: 200;" fill="rgb(33, 33, 33)" stroke="none" stroke-width="1px">12k</text><text x="256.7361111111111" y="0" dx="0em" dy="0.95em" style="text-anchor: middle; visibility: inherit; font-family: Roboto, sans-serif; font-size: 12px; font-weight: 200;" fill="rgb(33, 33, 33)" stroke="none" stroke-width="1px">14k</text><text x="288.828125" y="0" dx="0em" dy="0.95em" style="text-anchor: middle; visibility: hidden; font-family: Roboto, sans-serif; font-size: 12px; font-weight: 200;" fill="rgb(33, 33, 33)" stroke="none" stroke-width="1px">16k</text></g><line x1="0" y1="0" x2="288.828125" y2="0" fill="rgb(0, 0, 0)" stroke="rgb(204, 204, 204)" stroke-width="1px"></line></g></g></g></g></svg>